<svg width="23" height="23" viewBox="0 0 23 23" fill="none" xmlns="http://www.w3.org/2000/svg">
<path d="M11.64 2.89473C14.4873 2.89473 14.8223 2.90869 15.9459 2.95754C16.9857 3.00639 17.551 3.18086 17.9278 3.32741C18.4233 3.52281 18.7792 3.75311 19.1561 4.12298C19.526 4.49285 19.7632 4.84877 19.9517 5.35123C20.0982 5.72808 20.2727 6.29336 20.3215 7.33319C20.3704 8.45676 20.3843 8.79174 20.3843 11.639C20.3843 14.4864 20.3704 14.8213 20.3215 15.9449C20.2727 16.9847 20.0982 17.55 19.9517 17.9269C19.7563 18.4223 19.526 18.7783 19.1561 19.1551C18.7862 19.525 18.4303 19.7623 17.9278 19.9507C17.551 20.0972 16.9857 20.2717 15.9459 20.3206C14.8223 20.3694 14.4873 20.3834 11.64 20.3834C8.79271 20.3834 8.45774 20.3694 7.33416 20.3206C6.29434 20.2717 5.72906 20.0972 5.35221 19.9507C4.85672 19.7553 4.50081 19.525 4.12396 19.1551C3.75409 18.7852 3.51681 18.4293 3.32839 17.9269C3.18183 17.55 3.00737 16.9847 2.95851 15.9449C2.90966 14.8213 2.89571 14.4864 2.89571 11.639C2.89571 8.79174 2.90966 8.45676 2.95851 7.33319C3.00737 6.29336 3.18183 5.72808 3.32839 5.35123C3.52379 4.85575 3.75409 4.49983 4.12396 4.12298C4.49383 3.75311 4.84974 3.51584 5.35221 3.32741C5.72906 3.18086 6.29434 3.00639 7.33416 2.95754C8.45076 2.90171 8.79271 2.89473 11.64 2.89473ZM11.64 0.975586C8.74386 0.975586 8.38097 0.989543 7.24344 1.03839C6.10591 1.08725 5.33127 1.26869 4.65434 1.53388C3.94949 1.80605 3.3563 2.16894 2.76311 2.76213C2.16992 3.35532 1.80703 3.94851 1.53486 4.65336C1.26967 5.3303 1.08822 6.10493 1.03937 7.24246C0.99052 8.37999 0.976562 8.74288 0.976562 11.639C0.976562 14.5352 0.99052 14.8981 1.03937 16.0356C1.08822 17.1732 1.26967 17.9478 1.53486 18.6247C1.80703 19.3226 2.16992 19.9228 2.76311 20.516C3.3563 21.1092 3.94949 21.472 4.65434 21.7442C5.33127 22.0094 6.10591 22.1909 7.24344 22.2397C8.38097 22.2886 8.74386 22.3025 11.64 22.3025C14.5362 22.3025 14.8991 22.2886 16.0366 22.2397C17.1741 22.1909 17.9488 22.0094 18.6257 21.7442C19.3306 21.472 19.9237 21.1092 20.5169 20.516C21.1101 19.9228 21.473 19.3296 21.7452 18.6247C22.0104 17.9478 22.1918 17.1732 22.2407 16.0356C22.2895 14.8981 22.3035 14.5352 22.3035 11.639C22.3035 8.74288 22.2895 8.37999 22.2407 7.24246C22.1918 6.10493 22.0104 5.3303 21.7452 4.65336C21.473 3.95549 21.1101 3.35532 20.5169 2.76213C19.9237 2.16894 19.3306 1.80605 18.6257 1.53388C17.9488 1.26869 17.1741 1.08725 16.0366 1.03839C14.8991 0.982565 14.5362 0.975586 11.64 0.975586Z" fill="#EBEBEB"/>
<path d="M11.6384 6.16113C8.61666 6.16113 6.16016 8.61066 6.16016 11.6394C6.16016 14.6682 8.60968 17.1177 11.6384 17.1177C14.6602 17.1177 17.1167 14.6682 17.1167 11.6394C17.1167 8.61066 14.6602 6.16113 11.6384 6.16113ZM11.6384 15.1916C9.67742 15.1916 8.08628 13.6004 8.08628 11.6394C8.08628 9.6784 9.67742 8.08726 11.6384 8.08726C13.5995 8.08726 15.1906 9.6784 15.1906 11.6394C15.1906 13.6004 13.5995 15.1916 11.6384 15.1916Z" fill="#EBEBEB"/>
<path d="M18.6128 5.9441C18.6128 6.64894 18.0405 7.2212 17.3357 7.2212C16.6308 7.2212 16.0586 6.64894 16.0586 5.9441C16.0586 5.23925 16.6308 4.66699 17.3357 4.66699C18.0405 4.66699 18.6128 5.23925 18.6128 5.9441Z" fill="#EBEBEB"/>
</svg>
