<svg width="34" height="35" viewBox="0 0 34 35" fill="none" xmlns="http://www.w3.org/2000/svg">
<path d="M16.8357 3.90005C21.2925 3.90005 21.8168 3.92221 23.5755 3.99979C25.2031 4.07736 26.0879 4.35441 26.6778 4.58713C27.4534 4.89742 28.0105 5.26312 28.6004 5.85046C29.1793 6.43779 29.5507 7.00297 29.8456 7.80086C30.075 8.39928 30.3481 9.29691 30.4246 10.9481C30.5011 12.7323 30.5229 13.2642 30.5229 17.7856C30.5229 22.307 30.5011 22.8389 30.4246 24.6231C30.3481 26.2743 30.075 27.1719 29.8456 27.7704C29.5398 28.5572 29.1793 29.1224 28.6004 29.7208C28.0214 30.3081 27.4643 30.6849 26.6778 30.9841C26.0879 31.2168 25.2031 31.4939 23.5755 31.5714C21.8168 31.649 21.2925 31.6712 16.8357 31.6712C12.3789 31.6712 11.8546 31.649 10.0959 31.5714C8.46827 31.4939 7.58347 31.2168 6.99359 30.9841C6.21802 30.6738 5.66092 30.3081 5.07105 29.7208C4.4921 29.1334 4.1207 28.5683 3.82577 27.7704C3.59637 27.1719 3.32328 26.2743 3.24682 24.6231C3.17035 22.8389 3.14851 22.307 3.14851 17.7856C3.14851 13.2642 3.17035 12.7323 3.24682 10.9481C3.32328 9.29691 3.59637 8.39928 3.82577 7.80086C4.13163 7.01405 4.4921 6.44888 5.07105 5.85046C5.65 5.26312 6.2071 4.88634 6.99359 4.58713C7.58347 4.35441 8.46827 4.07736 10.0959 3.99979C11.8436 3.91113 12.3789 3.90005 16.8357 3.90005ZM16.8357 0.852539C12.3024 0.852539 11.7344 0.874703 9.95387 0.952276C8.17334 1.02985 6.96082 1.31798 5.90124 1.73909C4.79796 2.17128 3.86946 2.74754 2.94096 3.68949C2.01246 4.63145 1.44443 5.57341 1.01841 6.69268C0.603319 7.76762 0.319308 8.9977 0.242843 10.804C0.166379 12.6104 0.144531 13.1866 0.144531 17.7856C0.144531 22.3846 0.166379 22.9608 0.242843 24.7672C0.319308 26.5735 0.603319 27.8036 1.01841 28.8786C1.44443 29.9867 2.01246 30.9398 2.94096 31.8817C3.86946 32.8237 4.79796 33.3999 5.90124 33.8321C6.96082 34.2533 8.17334 34.5414 9.95387 34.619C11.7344 34.6965 12.3024 34.7187 16.8357 34.7187C21.369 34.7187 21.937 34.6965 23.7175 34.619C25.4981 34.5414 26.7106 34.2533 27.7702 33.8321C28.8735 33.3999 29.802 32.8237 30.7305 31.8817C31.659 30.9398 32.227 29.9978 32.653 28.8786C33.0681 27.8036 33.3521 26.5735 33.4286 24.7672C33.505 22.9608 33.5269 22.3846 33.5269 17.7856C33.5269 13.1866 33.505 12.6104 33.4286 10.804C33.3521 8.9977 33.0681 7.76762 32.653 6.69268C32.227 5.58449 31.659 4.63145 30.7305 3.68949C29.802 2.74754 28.8735 2.17128 27.7702 1.73909C26.7106 1.31798 25.4981 1.02985 23.7175 0.952276C21.937 0.863621 21.369 0.852539 16.8357 0.852539Z" fill="#202020"/>
<path d="M16.8367 9.08643C12.1068 9.08643 8.26172 12.9762 8.26172 17.7857C8.26172 22.5952 12.0959 26.4849 16.8367 26.4849C21.5666 26.4849 25.4117 22.5952 25.4117 17.7857C25.4117 12.9762 21.5666 9.08643 16.8367 9.08643ZM16.8367 23.4263C13.7672 23.4263 11.2766 20.8997 11.2766 17.7857C11.2766 14.6717 13.7672 12.145 16.8367 12.145C19.9062 12.145 22.3968 14.6717 22.3968 17.7857C22.3968 20.8997 19.9062 23.4263 16.8367 23.4263Z" fill="#202020"/>
<path d="M27.748 8.74234C27.748 9.8616 26.8523 10.7703 25.749 10.7703C24.6457 10.7703 23.75 9.8616 23.75 8.74234C23.75 7.62307 24.6457 6.71436 25.749 6.71436C26.8523 6.71436 27.748 7.62307 27.748 8.74234Z" fill="#202020"/>
</svg>
