<svg width="70" height="38" viewBox="0 0 70 38" fill="none" xmlns="http://www.w3.org/2000/svg">
<path d="M5.25052 20.6418H0.348871V19.535H11.338V20.6418H6.45616V33.647H5.25052V20.6418ZM10.6804 23.4681H11.8268V25.1284C12.2352 24.5486 12.703 24.1006 13.2301 23.7844C13.7571 23.4681 14.3171 23.31 14.9101 23.31C15.055 23.31 15.1868 23.3166 15.3053 23.3298C15.4371 23.3298 15.5755 23.343 15.7204 23.3693L15.5821 24.4564C15.3449 24.4169 15.1275 24.3971 14.9298 24.3971C14.5872 24.3971 14.2381 24.463 13.8823 24.5947C13.5265 24.7133 13.1905 24.9241 12.8743 25.2272C12.5712 25.4907 12.3209 25.8136 12.1232 26.1957C11.9256 26.5646 11.8268 27.006 11.8268 27.5199V33.647H10.6804V23.4681ZM25.2013 30.9787C25.0432 31.8616 24.6215 32.5797 23.9363 33.1331C23.2512 33.6865 22.2761 33.9632 21.0112 33.9632C19.5486 33.9632 18.4088 33.4954 17.5919 32.5599C16.7881 31.6112 16.3862 30.3133 16.3862 28.6663C16.3862 27.7703 16.4982 26.9797 16.7222 26.2945C16.9594 25.6093 17.2822 25.0361 17.6907 24.575C18.1123 24.1006 18.5999 23.7449 19.1533 23.5077C19.7199 23.2705 20.3392 23.1519 21.0112 23.1519C21.8018 23.1519 22.4738 23.2837 23.0272 23.5472C23.5806 23.7976 24.0286 24.1467 24.3712 24.5947C24.7269 25.0296 24.9839 25.55 25.142 26.1561C25.3001 26.7623 25.3792 27.4145 25.3792 28.1129V28.8441H17.5523C17.5523 29.4239 17.6248 29.9707 17.7698 30.4846C17.9147 30.9853 18.1321 31.4267 18.422 31.8089C18.7119 32.1778 19.0742 32.4743 19.5091 32.6983C19.9439 32.9091 20.4446 33.0145 21.0112 33.0145C21.5251 33.0145 21.9599 32.9684 22.3156 32.8761C22.6714 32.7707 22.9679 32.6258 23.2051 32.4413C23.4422 32.2569 23.6267 32.046 23.7585 31.8089C23.9034 31.5585 24.0154 31.2818 24.0945 30.9787H25.2013ZM24.1933 27.8559C24.1933 27.3025 24.134 26.7952 24.0154 26.334C23.8968 25.8729 23.7123 25.4776 23.462 25.1481C23.2116 24.8056 22.8822 24.542 22.4738 24.3576C22.0653 24.1731 21.5778 24.0809 21.0112 24.0809C20.0229 24.0809 19.2323 24.3905 18.6394 25.0098C18.0465 25.6291 17.6907 26.5778 17.5721 27.8559H24.1933ZM36.261 30.9787C36.1029 31.8616 35.6813 32.5797 34.9961 33.1331C34.3109 33.6865 33.3359 33.9632 32.0709 33.9632C30.6083 33.9632 29.4686 33.4954 28.6516 32.5599C27.8479 31.6112 27.446 30.3133 27.446 28.6663C27.446 27.7703 27.558 26.9797 27.782 26.2945C28.0191 25.6093 28.342 25.0361 28.7504 24.575C29.1721 24.1006 29.6596 23.7449 30.213 23.5077C30.7796 23.2705 31.3989 23.1519 32.0709 23.1519C32.8615 23.1519 33.5335 23.2837 34.0869 23.5472C34.6403 23.7976 35.0883 24.1467 35.4309 24.5947C35.7867 25.0296 36.0436 25.55 36.2017 26.1561C36.3599 26.7623 36.4389 27.4145 36.4389 28.1129V28.8441H28.6121C28.6121 29.4239 28.6846 29.9707 28.8295 30.4846C28.9744 30.9853 29.1919 31.4267 29.4817 31.8089C29.7716 32.1778 30.134 32.4743 30.5688 32.6983C31.0036 32.9091 31.5043 33.0145 32.0709 33.0145C32.5848 33.0145 33.0196 32.9684 33.3754 32.8761C33.7311 32.7707 34.0276 32.6258 34.2648 32.4413C34.502 32.2569 34.6864 32.046 34.8182 31.8089C34.9632 31.5585 35.0752 31.2818 35.1542 30.9787H36.261ZM35.253 27.8559C35.253 27.3025 35.1937 26.7952 35.0752 26.334C34.9566 25.8729 34.7721 25.4776 34.5217 25.1481C34.2714 24.8056 33.942 24.542 33.5335 24.3576C33.125 24.1731 32.6375 24.0809 32.0709 24.0809C31.0827 24.0809 30.2921 24.3905 29.6992 25.0098C29.1062 25.6291 28.7504 26.5778 28.6319 27.8559H35.253ZM39.0591 19.535H43.526C44.5142 19.535 45.318 19.6272 45.9372 19.8117C46.5697 19.9961 47.0704 20.2531 47.4394 20.5825C47.8083 20.8987 48.0587 21.2677 48.1904 21.6893C48.3354 22.111 48.4078 22.559 48.4078 23.0333C48.4078 23.7449 48.2431 24.3641 47.9137 24.8912C47.5843 25.4183 47.0309 25.8465 46.2535 26.1759C46.7542 26.3472 47.1692 26.558 47.4987 26.8084C47.8412 27.0456 48.1114 27.3157 48.309 27.6187C48.5198 27.9218 48.6648 28.2512 48.7438 28.607C48.8361 28.9496 48.8822 29.2987 48.8822 29.6545C48.8822 30.2079 48.7965 30.7284 48.6252 31.2159C48.454 31.7034 48.1707 32.1317 47.7754 32.5006C47.3801 32.8564 46.8662 33.1397 46.2337 33.3505C45.6012 33.5481 44.8238 33.647 43.9015 33.647H39.0591V19.535ZM43.7038 25.7213C44.9292 25.7213 45.8187 25.5039 46.3721 25.0691C46.9387 24.6211 47.222 23.9623 47.222 23.0926C47.222 22.223 46.9387 21.5905 46.3721 21.1952C45.8187 20.7867 44.8568 20.5825 43.4864 20.5825H40.245V25.7213H43.7038ZM43.862 32.5797C44.613 32.5797 45.2257 32.5138 45.7001 32.382C46.1876 32.2503 46.5697 32.0658 46.8464 31.8286C47.1363 31.5783 47.334 31.2818 47.4394 30.9392C47.558 30.5834 47.6172 30.1881 47.6172 29.7533C47.6172 28.7914 47.3274 28.0601 46.7476 27.5594C46.1678 27.0587 45.2257 26.8084 43.9212 26.8084H40.245V32.5797H43.862ZM57.6384 32.2041C57.4671 32.415 57.2629 32.6258 57.0257 32.8366C56.7885 33.0343 56.5184 33.2121 56.2154 33.3703C55.9123 33.5284 55.5763 33.6536 55.2074 33.7458C54.8516 33.838 54.4563 33.8841 54.0215 33.8841C52.9542 33.8841 52.0977 33.6272 51.4521 33.1133C50.8064 32.5994 50.4836 31.8352 50.4836 30.8206C50.4836 30.1354 50.6285 29.5754 50.9184 29.1406C51.2083 28.7058 51.5904 28.3632 52.0648 28.1129C52.5523 27.8625 53.0991 27.6912 53.7052 27.599C54.3245 27.4936 54.9636 27.4277 55.6224 27.4013L57.5989 27.3223V27.006C57.5989 26.0046 57.4012 25.2733 57.0059 24.8121C56.6238 24.351 55.9321 24.1204 54.9306 24.1204C54.4431 24.1204 54.0281 24.1599 53.6855 24.239C53.3561 24.318 53.0794 24.4366 52.8554 24.5947C52.6314 24.7397 52.4535 24.9176 52.3217 25.1284C52.1899 25.326 52.0911 25.55 52.0252 25.8004L50.9777 25.6423C51.3466 23.982 52.6775 23.1519 54.9702 23.1519C55.6817 23.1519 56.2812 23.2376 56.7688 23.4089C57.2563 23.5801 57.645 23.8305 57.9349 24.1599C58.2379 24.4761 58.4554 24.8714 58.5871 25.3458C58.7189 25.807 58.7848 26.3406 58.7848 26.9467V33.647H57.6384V32.2041ZM57.6186 28.2314L55.741 28.3105C54.9768 28.3369 54.3377 28.4093 53.8238 28.5279C53.3099 28.6333 52.8949 28.7914 52.5786 29.0023C52.2624 29.1999 52.0318 29.4503 51.8869 29.7533C51.7551 30.0432 51.6892 30.3924 51.6892 30.8009C51.6892 31.4201 51.8605 31.9209 52.2031 32.303C52.5589 32.6719 53.1716 32.8564 54.0412 32.8564C54.4761 32.8564 54.9043 32.8103 55.3259 32.718C55.7608 32.6126 56.1165 32.4479 56.3932 32.2239C56.6304 32.0526 56.8215 31.8879 56.9664 31.7298C57.1245 31.5717 57.2497 31.4004 57.3419 31.2159C57.4474 31.0183 57.5198 30.8009 57.5594 30.5637C57.5989 30.3265 57.6186 30.0498 57.6186 29.7336V28.2314ZM61.3224 36.2361C61.4805 36.302 61.6452 36.3547 61.8165 36.3943C62.001 36.4338 62.192 36.4536 62.3897 36.4536C62.6268 36.4536 62.8245 36.4272 62.9826 36.3745C63.1407 36.3218 63.2857 36.223 63.4174 36.078C63.5492 35.9463 63.6678 35.7684 63.7732 35.5444C63.8918 35.3336 64.0235 35.0569 64.1685 34.7143L64.6428 33.5086L60.2748 23.4681H61.5991L65.2951 32.1844L68.5958 23.4681H69.8805L65.2555 34.991C65.0974 35.3731 64.9327 35.7157 64.7614 36.0187C64.6033 36.335 64.4188 36.5985 64.208 36.8093C64.0104 37.0333 63.7732 37.198 63.4965 37.3034C63.2198 37.422 62.8904 37.4813 62.5083 37.4813C62.2052 37.4813 61.9483 37.4616 61.7374 37.422C61.5398 37.3957 61.3092 37.3364 61.0457 37.2441L61.3224 36.2361Z" fill="#202020"/>
<g clip-path="url(#clip0_376_308)">
<path d="M44.1123 8.08613C39.7588 11.5067 40.7398 14.8249 41.5373 16.3149C40.8799 17.5085 40.3927 18.5839 40.0362 19.5319C39.8193 15.8754 39.175 13.2799 38.5481 11.5482C39.1649 10.4862 39.7864 8.35925 37.1452 5.88528C33.5797 2.5457 28.25 4.22882 28.25 4.22882C32.5429 6.84765 29.9102 10.0509 32.3852 12.369C33.8176 13.7108 35.3877 13.5583 36.5141 13.1336C36.2014 11.5086 35.5002 8.59513 34.3047 7.26618C34.3047 7.26618 36.0842 8.94457 37.3225 11.0682C38.1577 13.0469 39.1828 16.8099 39.0984 22.9003C39.1053 24.0287 39.102 24.5628 39.1115 24.621C39.1501 24.8517 39.3498 25.019 39.581 25.019C39.591 25.019 39.6006 25.019 39.6101 25.018C39.8537 25.0037 40.0468 24.8078 40.0577 24.5638C40.0829 24.0108 40.0991 23.4755 40.1073 22.956C40.2741 21.738 40.7703 19.7985 42.1403 17.2054C42.1431 17.2083 42.1436 17.2092 42.1465 17.2121C44.0965 13.5126 48.0138 10.42 48.0138 10.42C46.1338 12.1765 44.7658 16.2668 44.1146 18.5573C45.6772 19.3066 47.9089 19.7208 50.1303 17.9757C53.9675 14.9608 50.5922 10.0396 57.0735 6.81969C57.0726 6.82014 49.6408 3.7427 44.1123 8.08613Z" fill="#202020"/>
</g>
<defs>
<clipPath id="clip0_376_308">
<rect width="28.8235" height="28.8235" fill="white" transform="translate(28.2461)"/>
</clipPath>
</defs>
</svg>
