<svg width="70" height="38" viewBox="0 0 70 38" fill="none" xmlns="http://www.w3.org/2000/svg">
<path d="M5.25052 20.6423H0.348871V19.5355H11.338V20.6423H6.45616V33.6475H5.25052V20.6423ZM10.6804 23.4686H11.8268V25.1289C12.2352 24.5491 12.703 24.1011 13.2301 23.7849C13.7571 23.4686 14.3171 23.3105 14.9101 23.3105C15.055 23.3105 15.1868 23.3171 15.3053 23.3303C15.4371 23.3303 15.5755 23.3435 15.7204 23.3698L15.5821 24.4569C15.3449 24.4173 15.1275 24.3976 14.9298 24.3976C14.5872 24.3976 14.2381 24.4635 13.8823 24.5952C13.5265 24.7138 13.1905 24.9246 12.8743 25.2277C12.5712 25.4912 12.3209 25.814 12.1232 26.1962C11.9256 26.5651 11.8268 27.0065 11.8268 27.5204V33.6475H10.6804V23.4686ZM25.2013 30.9792C25.0432 31.862 24.6215 32.5802 23.9363 33.1336C23.2512 33.687 22.2761 33.9637 21.0112 33.9637C19.5486 33.9637 18.4088 33.4959 17.5919 32.5604C16.7881 31.6117 16.3862 30.3138 16.3862 28.6668C16.3862 27.7708 16.4982 26.9802 16.7222 26.295C16.9594 25.6098 17.2822 25.0366 17.6907 24.5755C18.1123 24.1011 18.5999 23.7453 19.1533 23.5082C19.7199 23.271 20.3392 23.1524 21.0112 23.1524C21.8018 23.1524 22.4738 23.2842 23.0272 23.5477C23.5806 23.798 24.0286 24.1472 24.3712 24.5952C24.7269 25.03 24.9839 25.5505 25.142 26.1566C25.3001 26.7628 25.3792 27.415 25.3792 28.1133V28.8446H17.5523C17.5523 29.4244 17.6248 29.9712 17.7698 30.4851C17.9147 30.9858 18.1321 31.4272 18.422 31.8093C18.7119 32.1783 19.0742 32.4748 19.5091 32.6988C19.9439 32.9096 20.4446 33.015 21.0112 33.015C21.5251 33.015 21.9599 32.9689 22.3156 32.8766C22.6714 32.7712 22.9679 32.6263 23.2051 32.4418C23.4422 32.2573 23.6267 32.0465 23.7585 31.8093C23.9034 31.559 24.0154 31.2823 24.0945 30.9792H25.2013ZM24.1933 27.8564C24.1933 27.303 24.134 26.7957 24.0154 26.3345C23.8968 25.8733 23.7123 25.478 23.462 25.1486C23.2116 24.806 22.8822 24.5425 22.4738 24.358C22.0653 24.1736 21.5778 24.0813 21.0112 24.0813C20.0229 24.0813 19.2323 24.391 18.6394 25.0103C18.0465 25.6296 17.6907 26.5783 17.5721 27.8564H24.1933ZM36.261 30.9792C36.1029 31.862 35.6813 32.5802 34.9961 33.1336C34.3109 33.687 33.3359 33.9637 32.0709 33.9637C30.6083 33.9637 29.4686 33.4959 28.6516 32.5604C27.8479 31.6117 27.446 30.3138 27.446 28.6668C27.446 27.7708 27.558 26.9802 27.782 26.295C28.0191 25.6098 28.342 25.0366 28.7504 24.5755C29.1721 24.1011 29.6596 23.7453 30.213 23.5082C30.7796 23.271 31.3989 23.1524 32.0709 23.1524C32.8615 23.1524 33.5335 23.2842 34.0869 23.5477C34.6403 23.798 35.0883 24.1472 35.4309 24.5952C35.7867 25.03 36.0436 25.5505 36.2017 26.1566C36.3599 26.7628 36.4389 27.415 36.4389 28.1133V28.8446H28.6121C28.6121 29.4244 28.6846 29.9712 28.8295 30.4851C28.9744 30.9858 29.1919 31.4272 29.4817 31.8093C29.7716 32.1783 30.134 32.4748 30.5688 32.6988C31.0036 32.9096 31.5043 33.015 32.0709 33.015C32.5848 33.015 33.0196 32.9689 33.3754 32.8766C33.7311 32.7712 34.0276 32.6263 34.2648 32.4418C34.502 32.2573 34.6864 32.0465 34.8182 31.8093C34.9632 31.559 35.0752 31.2823 35.1542 30.9792H36.261ZM35.253 27.8564C35.253 27.303 35.1937 26.7957 35.0752 26.3345C34.9566 25.8733 34.7721 25.478 34.5217 25.1486C34.2714 24.806 33.942 24.5425 33.5335 24.358C33.125 24.1736 32.6375 24.0813 32.0709 24.0813C31.0827 24.0813 30.2921 24.391 29.6992 25.0103C29.1062 25.6296 28.7504 26.5783 28.6319 27.8564H35.253ZM39.0591 19.5355H43.526C44.5142 19.5355 45.318 19.6277 45.9372 19.8122C46.5697 19.9966 47.0704 20.2536 47.4394 20.583C47.8083 20.8992 48.0587 21.2682 48.1904 21.6898C48.3354 22.1115 48.4078 22.5595 48.4078 23.0338C48.4078 23.7453 48.2431 24.3646 47.9137 24.8917C47.5843 25.4188 47.0309 25.847 46.2535 26.1764C46.7542 26.3477 47.1692 26.5585 47.4987 26.8089C47.8412 27.046 48.1114 27.3162 48.309 27.6192C48.5198 27.9223 48.6648 28.2517 48.7438 28.6075C48.8361 28.95 48.8822 29.2992 48.8822 29.655C48.8822 30.2084 48.7965 30.7289 48.6252 31.2164C48.454 31.7039 48.1707 32.1322 47.7754 32.5011C47.3801 32.8569 46.8662 33.1402 46.2337 33.351C45.6012 33.5486 44.8238 33.6475 43.9015 33.6475H39.0591V19.5355ZM43.7038 25.7218C44.9292 25.7218 45.8187 25.5044 46.3721 25.0696C46.9387 24.6216 47.222 23.9628 47.222 23.0931C47.222 22.2235 46.9387 21.591 46.3721 21.1957C45.8187 20.7872 44.8568 20.583 43.4864 20.583H40.245V25.7218H43.7038ZM43.862 32.5802C44.613 32.5802 45.2257 32.5143 45.7001 32.3825C46.1876 32.2508 46.5697 32.0663 46.8464 31.8291C47.1363 31.5788 47.334 31.2823 47.4394 30.9397C47.558 30.5839 47.6172 30.1886 47.6172 29.7538C47.6172 28.7919 47.3274 28.0606 46.7476 27.5599C46.1678 27.0592 45.2257 26.8089 43.9212 26.8089H40.245V32.5802H43.862ZM57.6384 32.2046C57.4671 32.4155 57.2629 32.6263 57.0257 32.8371C56.7885 33.0348 56.5184 33.2126 56.2154 33.3708C55.9123 33.5289 55.5763 33.654 55.2074 33.7463C54.8516 33.8385 54.4563 33.8846 54.0215 33.8846C52.9542 33.8846 52.0977 33.6277 51.4521 33.1138C50.8064 32.5999 50.4836 31.8357 50.4836 30.8211C50.4836 30.1359 50.6285 29.5759 50.9184 29.1411C51.2083 28.7063 51.5904 28.3637 52.0648 28.1133C52.5523 27.863 53.0991 27.6917 53.7052 27.5995C54.3245 27.494 54.9636 27.4282 55.6224 27.4018L57.5989 27.3228V27.0065C57.5989 26.0051 57.4012 25.2738 57.0059 24.8126C56.6238 24.3515 55.9321 24.1209 54.9306 24.1209C54.4431 24.1209 54.0281 24.1604 53.6855 24.2395C53.3561 24.3185 53.0794 24.4371 52.8554 24.5952C52.6314 24.7402 52.4535 24.918 52.3217 25.1289C52.1899 25.3265 52.0911 25.5505 52.0252 25.8009L50.9777 25.6428C51.3466 23.9825 52.6775 23.1524 54.9702 23.1524C55.6817 23.1524 56.2812 23.238 56.7688 23.4093C57.2563 23.5806 57.645 23.831 57.9349 24.1604C58.2379 24.4766 58.4554 24.8719 58.5871 25.3463C58.7189 25.8075 58.7848 26.3411 58.7848 26.9472V33.6475H57.6384V32.2046ZM57.6186 28.2319L55.741 28.311C54.9768 28.3373 54.3377 28.4098 53.8238 28.5284C53.3099 28.6338 52.8949 28.7919 52.5786 29.0028C52.2624 29.2004 52.0318 29.4508 51.8869 29.7538C51.7551 30.0437 51.6892 30.3929 51.6892 30.8013C51.6892 31.4206 51.8605 31.9213 52.2031 32.3035C52.5589 32.6724 53.1716 32.8569 54.0412 32.8569C54.4761 32.8569 54.9043 32.8108 55.3259 32.7185C55.7608 32.6131 56.1165 32.4484 56.3932 32.2244C56.6304 32.0531 56.8215 31.8884 56.9664 31.7303C57.1245 31.5722 57.2497 31.4009 57.3419 31.2164C57.4474 31.0188 57.5198 30.8013 57.5594 30.5642C57.5989 30.327 57.6186 30.0503 57.6186 29.734V28.2319ZM61.3224 36.2366C61.4805 36.3025 61.6452 36.3552 61.8165 36.3948C62.001 36.4343 62.192 36.454 62.3897 36.454C62.6268 36.454 62.8245 36.4277 62.9826 36.375C63.1407 36.3223 63.2857 36.2235 63.4174 36.0785C63.5492 35.9468 63.6678 35.7689 63.7732 35.5449C63.8918 35.334 64.0235 35.0573 64.1685 34.7148L64.6428 33.5091L60.2748 23.4686H61.5991L65.2951 32.1849L68.5958 23.4686H69.8805L65.2555 34.9915C65.0974 35.3736 64.9327 35.7162 64.7614 36.0192C64.6033 36.3355 64.4188 36.599 64.208 36.8098C64.0104 37.0338 63.7732 37.1985 63.4965 37.3039C63.2198 37.4225 62.8904 37.4818 62.5083 37.4818C62.2052 37.4818 61.9483 37.462 61.7374 37.4225C61.5398 37.3962 61.3092 37.3369 61.0457 37.2446L61.3224 36.2366Z" fill="white"/>
<g clip-path="url(#clip0_376_267)">
<path d="M44.1123 8.08613C39.7588 11.5067 40.7398 14.8249 41.5373 16.3149C40.8799 17.5085 40.3927 18.5839 40.0362 19.5319C39.8193 15.8754 39.175 13.2799 38.5481 11.5482C39.1649 10.4862 39.7864 8.35925 37.1452 5.88528C33.5797 2.5457 28.25 4.22882 28.25 4.22882C32.5429 6.84765 29.9102 10.0509 32.3852 12.369C33.8176 13.7108 35.3877 13.5583 36.5141 13.1336C36.2014 11.5086 35.5002 8.59513 34.3047 7.26618C34.3047 7.26618 36.0842 8.94457 37.3225 11.0682C38.1577 13.0469 39.1828 16.8099 39.0984 22.9003C39.1053 24.0287 39.102 24.5628 39.1115 24.621C39.1501 24.8517 39.3498 25.019 39.581 25.019C39.591 25.019 39.6006 25.019 39.6101 25.018C39.8537 25.0037 40.0468 24.8078 40.0577 24.5638C40.0829 24.0108 40.0991 23.4755 40.1073 22.956C40.2741 21.738 40.7703 19.7985 42.1403 17.2054C42.1431 17.2083 42.1436 17.2092 42.1465 17.2121C44.0965 13.5126 48.0138 10.42 48.0138 10.42C46.1338 12.1765 44.7658 16.2668 44.1146 18.5573C45.6772 19.3066 47.9089 19.7208 50.1303 17.9757C53.9675 14.9608 50.5922 10.0396 57.0735 6.81969C57.0726 6.82014 49.6408 3.7427 44.1123 8.08613Z" fill="white"/>
</g>
<defs>
<clipPath id="clip0_376_267">
<rect width="28.8235" height="28.8235" fill="white" transform="translate(28.2461)"/>
</clipPath>
</defs>
</svg>
