<svg width="21" height="29" viewBox="0 0 21 29" fill="none" xmlns="http://www.w3.org/2000/svg">
<path d="M18.8643 2.78294C17.0161 0.936357 14.202 0 10.5 0C6.79804 0 3.98393 0.936357 2.13573 2.78294C0.277428 4.63963 0 6.81488 0 7.94631L0 21.0538C0 22.1852 0.277428 24.3604 2.13573 26.2171C3.98393 28.0637 6.79804 29 10.5 29C14.202 29 17.0161 28.0637 18.8643 26.2171C20.7226 24.3604 21 22.1852 21 21.0538L21 7.94631C21 6.81488 20.7226 4.63963 18.8643 2.78294ZM10.5 10.1032C9.73288 10.1032 9.10884 9.57168 9.10884 8.91828V6.379C9.10884 5.7256 9.73288 5.19406 10.5 5.19406C11.2671 5.19406 11.8912 5.7256 11.8912 6.379V8.91828C11.8912 9.57168 11.2671 10.1032 10.5 10.1032ZM19.9017 21.0538C19.9017 22.2244 19.4485 28.0645 10.5 28.0645C1.55152 28.0645 1.09829 22.2244 1.09829 21.0538L1.09829 7.94631C1.09829 6.80009 1.53416 1.17865 9.95086 0.943966V4.31121C8.84159 4.52487 8.01055 5.37049 8.01055 6.379V8.91828C8.01055 9.92679 8.84159 10.7724 9.95086 10.9861V14.8295C9.95086 15.0879 10.1967 15.2973 10.5 15.2973C10.8033 15.2973 11.0491 15.0879 11.0491 14.8295V10.9861C12.1584 10.7724 12.9895 9.92679 12.9895 8.91828V6.379C12.9895 5.37049 12.1584 4.52487 11.0491 4.31121V0.943966C19.4659 1.17871 19.9017 6.80009 19.9017 7.94631L19.9017 21.0538Z" fill="white"/>
</svg>
