<svg width="36" height="27" viewBox="0 0 36 27" fill="none" xmlns="http://www.w3.org/2000/svg">
<path d="M19.5621 5.81901C14.2758 9.97259 15.467 14.0018 16.4353 15.8111C15.6371 17.2605 15.0455 18.5663 14.6126 19.7175C14.3493 15.2774 13.5668 12.1258 12.8056 10.0229C13.5546 8.73335 14.3093 6.15066 11.1021 3.14655C6.7726 -0.908659 0.300781 1.13514 0.300781 1.13514C5.51363 4.31515 2.3168 8.20481 5.32205 11.0196C7.06139 12.649 8.96802 12.4638 10.3358 11.948C9.95606 9.97483 9.10464 6.43709 7.65295 4.82336C7.65295 4.82336 9.81369 6.8614 11.3174 9.44004C12.3316 11.8428 13.5764 16.4121 13.4739 23.8076C13.4822 25.1778 13.4782 25.8264 13.4897 25.897C13.5367 26.1772 13.7791 26.3803 14.0599 26.3803C14.072 26.3803 14.0837 26.3803 14.0952 26.3792C14.391 26.3618 14.6254 26.1239 14.6387 25.8276C14.6694 25.1561 14.689 24.5062 14.6989 23.8752C14.9015 22.3963 15.504 20.0412 17.1675 16.8924C17.171 16.8959 17.1715 16.897 17.1751 16.9005C19.5429 12.4083 24.2997 8.65297 24.2997 8.65297C22.0169 10.7859 20.3557 15.7527 19.565 18.534C21.4623 19.4438 24.1723 19.9468 26.8697 17.8278C31.5292 14.1668 27.4306 8.19107 35.3007 4.28119C35.2996 4.28173 26.2753 0.544849 19.5621 5.81901Z" fill="#EEEEEE"/>
</svg>
