<svg width="36" height="25" viewBox="0 0 36 25" fill="none" xmlns="http://www.w3.org/2000/svg">
<path d="M0.550781 21.8847C3.68695 23.584 7.39937 24.5791 11.3999 24.5791C24.5319 24.5791 31.9568 15.1814 31.5135 6.75061C32.8987 5.90566 34.0956 4.85416 35.0486 3.65245C33.7742 4.13125 32.4111 4.45046 30.9816 4.59128C32.4444 3.8496 33.5636 2.67606 34.0956 1.27719C32.7325 1.96254 31.2143 2.46012 29.6074 2.73239C28.3108 1.56823 26.4823 0.835937 24.4433 0.835937C19.8775 0.835937 16.5197 4.45046 17.5503 8.19642C11.6659 7.94293 6.45741 5.55828 2.96663 1.93437C1.11596 4.62884 2.00251 8.15886 5.16083 9.93326C3.99724 9.9051 2.91122 9.63284 1.95818 9.1822C1.8806 11.9612 4.22996 14.5523 7.63209 15.1344C6.63472 15.3597 5.5487 15.4161 4.44051 15.2377C5.33814 17.6223 7.95346 19.3498 11.0453 19.3967C8.0532 21.3777 4.29645 22.2602 0.550781 21.8847Z" fill="#202020"/>
</svg>
