<svg width="23" height="16" viewBox="0 0 23 16" fill="none" xmlns="http://www.w3.org/2000/svg">
<path d="M0.78125 13.9554C2.75622 15.0255 5.09409 15.6522 7.6134 15.6522C15.8832 15.6522 20.5589 9.73409 20.2798 4.4249C21.1521 3.8928 21.9058 3.23063 22.506 2.47387C21.7034 2.77539 20.845 2.97641 19.9448 3.06509C20.866 2.59802 21.5708 1.85899 21.9058 0.97807C21.0474 1.40966 20.0913 1.72301 19.0794 1.89447C18.2629 1.16135 17.1114 0.700195 15.8273 0.700195C12.9521 0.700195 10.8376 2.9764 11.4866 5.33539C7.78089 5.17576 4.5009 3.67405 2.30261 1.39193C1.13716 3.08874 1.69546 5.31174 3.68439 6.42915C2.95163 6.41141 2.26771 6.23996 1.66755 5.95617C1.6187 7.70619 3.09818 9.33797 5.24064 9.70453C4.61256 9.84642 3.92865 9.88189 3.23078 9.76956C3.79605 11.2713 5.44303 12.3591 7.39009 12.3887C5.50584 13.6362 3.14005 14.1919 0.78125 13.9554Z" fill="#EBEBEB"/>
</svg>
