<svg id="Слой_1" data-name="Слой 1" xmlns="http://www.w3.org/2000/svg" viewBox="0 0 1920 2309.1"><path d="M931.3,343C743.5,83.1,0,0,0,0V834.6H931.3S1119,602.9,931.3,343Z" style="fill:#202020"/><path d="M931.3,343.4H0v983.2H931.3s-187.7-231.7,0-491.6S931.3,343.4,931.3,343.4Z" style="fill:#202020"/><path d="M0,2309.1H1810.1s-129.5-28.1-290.4-75.8c-70.1-20.7-146.2-45.2-220.1-72.7-243.4-90.5-462.6-213.2-368.8-343.1,187.7-259.9,0-491.6,0-491.6H0" style="fill:#202020"/><polygon points="1920 2309.1 1467.7 2217.5 1761.9 2309.1 1920 2309.1" style="fill:#202020"/><polygon points="1411.2 2199.5 1539 2232 1467.7 2232 1411.2 2199.5" style="fill:#202020"/></svg>